<svg xmlns="http://www.w3.org/2000/svg" viewBox="0 0 1000 1000">
  <path fill="#000" transform="translate(0,1000) scale(0.1,-0.1)" d="M4700 9989c-1204-72-2334-573-3188-1413-436-428-739-846-997-1371-727-1478-683-3192 118-4640 360-650 882-1226 1517-1673 371-260 879-512 1315-652 1636-522 3415-178 4729 914 126 106 227 197 309 281 296 303 409 437 605 715 261 371 512 879 652 1315 429 1343 277 2799-419 4015-335 585-806 1117-1353 1527-931 699-2116 1053-3288 982zm1333-3577l-452-447-1177-1167c-400-396-731-722-737-723-5-2-255 243-555 545l-545 548 627 623 627 622 1106 0 1106-1zm512-1512 560-561-170-165c-93-92-375-371-625-620l-455-454-1123 0c-631 0-1122 4-1122 9 0 10 2359 2350 2370 2351 3 0 257-252 565-560z"/>
</svg>
